<?xml version="1.0" standalone="no"?>
<!DOCTYPE svg PUBLIC "-//W3C//DTD SVG 20010904//EN"
 "http://www.w3.org/TR/2001/REC-SVG-20010904/DTD/svg10.dtd">
<svg version="1.0" xmlns="http://www.w3.org/2000/svg"
 width="500.000000pt" height="500.000000pt" viewBox="0 0 500.000000 500.000000"
 preserveAspectRatio="xMidYMid meet">
<metadata>
Created by potrace 1.14, written by Peter Selinger 2001-2017
</metadata>
<g transform="translate(0.000000,500.000000) scale(0.100000,-0.100000)"
fill="#000000" stroke="none">
<path d="M1825 3230 c-476 -951 -675 -1340 -686 -1340 -25 0 -332 57 -458 85
-144 32 -154 31 -61 -6 335 -132 934 -274 1274 -301 l39 -3 281 657 c154 362
283 655 288 650 4 -4 132 -300 284 -657 152 -358 277 -651 278 -651 0 -1 66 6
146 17 271 34 574 98 825 174 144 43 415 138 410 143 -2 2 -68 -10 -147 -27
-167 -35 -413 -81 -440 -81 -14 0 -163 290 -688 1340 -369 737 -671 1340 -673
1340 -1 0 -304 -603 -672 -1340z"/>
<path d="M4613 1850 c-486 -213 -1037 -355 -1643 -422 -151 -17 -809 -16 -985
0 -613 59 -1049 170 -1680 426 l-40 17 40 -36 c124 -111 355 -273 526 -370
l87 -49 -244 -488 c-134 -268 -244 -490 -244 -493 0 -3 220 -5 488 -5 l489 0
142 333 c77 182 145 338 149 345 7 10 21 10 73 -2 236 -55 511 -80 788 -73
237 6 395 24 600 67 l133 28 13 -32 c8 -17 74 -173 148 -346 l135 -315 491 -3
491 -2 -250 500 -250 499 73 42 c189 108 421 275 577 416 21 19 16 17 -107
-37z"/>
</g>
</svg>
